<svg id="Layer_1" data-name="Layer 1" xmlns="http://www.w3.org/2000/svg" viewBox="0 0 217 217"><defs><style>.cls-1{fill:none;}.cls-1,.cls-2,.cls-3,.cls-4,.cls-5{stroke:#000;stroke-miterlimit:10;}.cls-2{fill:#568c60;}.cls-3{fill:#d30d33;}.cls-4{fill:#8ceaa1;}.cls-5{fill:#2727b7;}</style></defs><title>step2_dijkstra</title><rect class="cls-1" x="0.5" y="0.5" width="216" height="216"/><rect class="cls-2" x="0.5" y="0.5" width="54" height="54"/><rect class="cls-2" x="54.5" y="0.5" width="54" height="54"/><rect class="cls-2" x="108.5" y="0.5" width="54" height="54"/><rect class="cls-3" x="162.5" y="0.5" width="54" height="54"/><rect class="cls-4" x="0.5" y="54.5" width="54" height="54"/><rect class="cls-4" x="54.5" y="54.5" width="54" height="54"/><rect class="cls-4" x="108.5" y="54.5" width="54" height="54"/><rect class="cls-2" x="162.5" y="54.5" width="54" height="54"/><rect class="cls-4" x="0.5" y="108.5" width="54" height="54"/><rect class="cls-5" x="54.5" y="108.5" width="54" height="54"/><rect class="cls-4" x="108.5" y="108.5" width="54" height="54"/><rect class="cls-2" x="162.5" y="108.5" width="54" height="54"/><rect class="cls-4" x="0.5" y="162.5" width="54" height="54"/><rect class="cls-4" x="54.5" y="162.5" width="54" height="54"/><rect class="cls-4" x="108.5" y="162.5" width="54" height="54"/><rect class="cls-2" x="162.5" y="162.5" width="54" height="54"/></svg>